<svg width="95" height="105" viewBox="0 0 95 105" fill="none" xmlns="http://www.w3.org/2000/svg">
<path d="M94.9837 27.1362V63.8764C94.9837 78.4585 82.5112 90.2809 67.1272 90.2809H64.3096L49.9212 103.91C49.3577 104.445 48.5781 104.783 47.7141 104.783C46.9158 104.783 46.1926 104.507 45.6385 104.044L45.3943 103.813L45.3849 103.804L31.1185 90.2809H28.2915C12.9169 90.2809 0.444458 78.4585 0.444458 63.8764V27.1362C0.444458 12.5541 12.9169 0.73172 28.3009 0.73172H67.1272C82.5112 0.73172 94.9837 12.5541 94.9837 27.1362Z" fill="#FFD666"/>
<path d="M22.456 51.6282C19.7135 51.6282 18.1504 54.5904 19.7416 56.7292C25.9285 65.0608 36.159 70.4929 47.7186 70.4929C59.2782 70.4929 69.4993 65.0519 75.6863 56.7292C77.2775 54.5904 75.7144 51.6282 72.9719 51.6282H22.456Z" fill="white"/>
<path d="M38.5179 39.0195H21.9695V31.1085C21.9695 26.7413 25.676 23.1974 30.2437 23.1974C34.8114 23.1974 38.5179 26.7413 38.5179 31.1085V39.0195Z" fill="white"/>
<path d="M73.4686 39.0195H56.9202V31.1085C56.9202 26.7413 60.6267 23.1975 65.1944 23.1975C69.7621 23.1975 73.4686 26.7413 73.4686 31.1085V39.0195Z" fill="white"/>
</svg>
